<?xml version="1.0" encoding="UTF-8"?>
<svg id="Layer_2" data-name="Layer 2" xmlns="http://www.w3.org/2000/svg" viewBox="0 0 1704.1 1024.09">
  <defs>
    <style>
      .cls-1 {
        letter-spacing: .04em;
      }

      .cls-2 {
        letter-spacing: 0em;
      }

      .cls-3 {
        font-size: 585px;
      }

      .cls-4 {
        letter-spacing: .02em;
      }

      .cls-5 {
        font-size: 405.61px;
      }

      .cls-6 {
        stroke-width: 0px;
      }

      .cls-6, .cls-7 {
        fill: #414042;
      }

      .cls-8 {
        letter-spacing: .02em;
      }

      .cls-9 {
        letter-spacing: .03em;
      }

      .cls-7 {
        font-family: Caveat-Regular, Caveat;
        font-variation-settings: 'wght' 400;
      }
    </style>
  </defs>
  <g id="Layer_1-2" data-name="Layer 1">
    <g>
      <text class="cls-7" transform="translate(841.4 516.3)"><tspan class="cls-3"><tspan class="cls-2" x="0" y="0">A</tspan><tspan x="287.82" y="0">na</tspan></tspan><tspan class="cls-5"><tspan class="cls-1" x="-31.65" y="341.13">F</tspan><tspan class="cls-8" x="168.71" y="341.13">lá</tspan><tspan class="cls-9" x="430.74" y="341.13">v</tspan><tspan class="cls-4" x="577.16" y="341.13">ia</tspan></tspan></text>
      <g>
        <path class="cls-6" d="M480.04,110.38L382.2,12.55c-.98-.98-1.03-2.56-.1-3.59l7.22-8.09c.84-.94,2.21-1.13,3.28-.48,12.99,7.88,28.5,13.67,37.63,24.73,49.73,60.25,114.47,100.18,178.22,143.38,123.74,83.85,177.4,263.68,130.46,412.67-47.33,150.24-191.18,260.99-343.39,264.12-6.74.14-13.51-1.53-25.47-3.36-1.95-.3-2.87-2.56-1.72-4.16,7.81-10.82,12.55-19.22,19.38-25.25,57.14-50.46,78.81-114.56,65.65-187.77-9.2-51.18-24.08-101.85-41.63-150.89-36.2-101.15-46.19-199.85,15.79-294.8,13.82-21.17,31.73-39.66,52.67-65.13.86-1.04.81-2.6-.15-3.56ZM663.06,491.13c-7.74,1.13-7.51,1.1-15.25,2.23-10.54-21.3-20.79-42.03-28.11-56.82-1.18-2.38-4.75-1.73-4.95.92-3.2,42.27-6.39,90.89-11.4,139.33-1.1,10.59-6.9,20.69-11.72,30.89-1.01,2.14-4.1,1.95-4.83-.3-3.38-10.4-7.51-20.76-7.96-31.29-2.19-51.24-2.99-102.53-4.18-153.81-9.54-2.22-8.37-1.95-17.92-4.16-12.87,24.59-25.75,49.17-38.62,73.76-8.51-2.26-7.13-1.89-15.65-4.15,1.8-37.41,19.27-68.43,45.7-96.24,7.32-7.7,18.36-18.81,17.08-26.6-6.74-40.9-16.62-81.27-26.31-125.32-.4-1.83-2.62-2.72-4.13-1.61-49.15,35.72-44.69,93.7-70.36,137.61-1.02,1.75-3.7,1.72-4.59-.1-19.09-39.13,10.75-113.86,64.68-166.9.8-.78,1.01-1.98.51-2.98l-29.91-60.85c-.77-1.56-2.85-1.96-4.15-.8-58.79,52.45-88.09,114.51-81.59,185.82,5.27,57.9,15.11,118.48,40.78,171.33,119.09,245.17-22.43,312.16-20.12,312,140.16-9.86,269.96-137.02,295.37-288.11,25.52-151.78-57.64-314.95-194.96-373.46-2.32-.99-4.52,1.61-3.27,3.79,15.41,26.87,24.82,53.94,43.86,67.43,43.8,31.03,66.98,73.09,84.7,120.43,2.1,5.61-.27,12.89-1.02,19.56-.11.94-.68,1.74-1.54,2.11l-7.01,3.04-59.8-100.37c-1.34-2.25-4.77-1.34-4.86,1.28-2.18,63.68,12.86,97.82,52.41,142.79,20.41,23.2,34,49.3,29.12,79.56Z"/>
        <path class="cls-6" d="M381.91,191.2c1.99.13,3.14,2.35,2.07,4.03-6.67,10.47-8.72,15.24-12.28,18.2-80.22,66.72-82.05,151.78-57.31,243.03,18.38,67.8,43.67,134.53,53.96,203.52,12.89,86.39-8.64,167.88-72.55,232.7-14.96,15.17-13.92,27.12-.55,40.42,23.38,23.26,47.64,45.67,70.5,69.42,4.21,4.38,5.44,11.63,7.32,18.26.51,1.81-.99,3.53-2.86,3.29-6.55-.87-13.11-1.72-19.64-2.72-.97-.15-1.89-1.27-2.62-2.12-81.15-93.53-202.48-141.49-277.74-240.51C-1.07,684.93-14.91,576.76,14.45,463.93,54.24,311,187.66,200.76,343.62,189.33c10.63-.78,21.42.79,38.28,1.87ZM169.89,759.42c8.53-3.51,6-2.47,14.52-5.97-4.09-15.54-8.39-31.06-9.95-46.85-3.05-30.9-14.76-53.92-38.16-75.92-18.73-17.61-29.09-45-40.01-69.46-2.64-5.91-7.56-32.78,10.64-24.63,4.7,6.07,9.7,11.97,13.26,18.65,8.73,16.36,16.83,33.07,23.62,46.92,1.19,2.43,4.81,1.64,4.94-1.06,2.59-54.1,4.92-108.75,8.52-163.31.37-5.67,6.54-10.96,11.29-16.34,1.17-1.32,3.26-1.14,4.17.37,3.61,5.99,8.28,11.96,8.45,18.05.75,27.31-1.71,54.72-.73,82.01,1.04,29.24,3.9,58.42,6.25,87.61,9.72,1.55,8.33,1.33,18.05,2.88,8.92-21.22,17.55-42.58,27.7-63.2,2.67-5.42,9.99-8.56,16.11-12.28,1.43-.87,3.27-.18,3.8,1.41,2.09,6.29,5.53,13.29,3.39,17.36-15.57,29.58-32.78,58.31-49.68,87.18-3.84,6.55-13.18,13.42-12.2,18.7,7.82,42.19,17.37,84.05,27.91,132.68.43,1.99,2.9,2.79,4.37,1.37,10.64-10.23,16.39-13.88,18.49-19.03,13.62-33.43,25.6-67.54,39.63-100.79,2.68-6.36,9.63-10.92,15.55-15.92,1.42-1.2,3.59-.57,4.15,1.21,2.15,6.8,5.28,13.8,4.04,19.92-9.73,48.26-22.13,95.32-59.71,131.57-5.88,5.68-7.5,20.35-5,29.12,3.97,13.92,12.25,26.62,20.47,42.5.79,1.53,2.85,1.93,4.13.78,38.88-34.92,59.68-75.88,70.23-122.16,17.56-77.07,5.22-151.66-22.44-224.37-25.25-66.36-99.44-213.05-.03-313.92.65-1.8-.82-3.72-2.73-3.56C177.56,232.55,31.46,371.99,25.99,554.35c-4.38,146.07,95.07,287.86,203.52,322.05,2.32.73,4.24-1.91,2.94-3.97-15.65-24.96-25.86-49.73-44.27-63.66-40.12-30.37-65.92-68.56-82.38-114.34-2.87-7.99.55-18.25,1.06-27.46l6.96-.89c1.04-.13,2.06.37,2.59,1.28,17.82,30.69,35.64,61.37,53.46,92.06Z"/>
      </g>
    </g>
  </g>
</svg>