<?xml version="1.0" encoding="UTF-8"?>
<svg id="Layer_2" data-name="Layer 2" xmlns="http://www.w3.org/2000/svg" viewBox="0 0 1704.1 1024.09">
  <defs>
    <style>
      .cls-1 {
        fill: #414042;
        stroke-width: 0px;
      }
    </style>
  </defs>
  <g id="Layer_1-2" data-name="Layer 1">
    <g>
      <g>
        <path class="cls-1" d="M881.76,535.61c-7.02-3.9-10.82-8.19-11.41-12.87-.58-4.68,2.05-12.87,7.9-24.57,5.85-11.7,15.01-29.83,27.5-54.41,9.36-17.55,16.47-31.3,21.35-41.24,4.87-9.95,8.19-17.06,9.94-21.35,1.76-4.29,2.63-7.02,2.63-8.19-.79-3.51-.39-6.33,1.17-8.48,1.55-2.14,4.1-3.99,7.61-5.56,1.95-1.95,5.16-5.46,9.65-10.53,4.48-5.06,8.67-11.12,12.58-18.13,3.51-8.19,7.61-16.57,12.29-25.16,4.68-8.57,10.91-19.4,18.72-32.47,7.8-13.06,17.93-30.13,30.42-51.19,7.8-13.65,16.38-27.59,25.74-41.83,9.36-14.23,19.3-28.37,29.83-42.41,4.29-5.46,8.19-9.84,11.7-13.16,3.51-3.31,7.02-4.77,10.53-4.39,4.68,0,10.04,1.56,16.09,4.68,6.04,3.13,11.6,7.22,16.67,12.29,5.06,5.07,8.78,10.53,11.12,16.38,1.95,3.13,2.72,9.75,2.34,19.89-.39,10.15-1.17,22.43-2.34,36.85-1.17,14.43-2.54,29.83-4.09,46.22-1.17,16-2.93,34.91-5.27,56.74-2.34,21.85-4.59,44.66-6.73,68.45-2.15,23.79-3.8,46.71-4.97,68.74-1.17,22.04-1.17,41.24,0,57.62.38,3.51.38,6.83,0,9.95-.39,3.12-.58,5.65-.58,7.61-2.34,2.34-6.14,3.41-11.41,3.22-5.26-.2-10.34-1.46-15.21-3.8-4.88-2.34-7.71-5.27-8.48-8.78-1.17-1.17-1.86-2.82-2.05-4.97-.2-2.14-.1-6.73.29-13.75.38-7.02.78-18.13,1.17-33.34l2.92-94.77-7.61.59c-3.51,0-10.15.39-19.89,1.17-9.75.79-20.28,1.86-31.59,3.22-11.32,1.37-21.75,2.73-31.3,4.1-9.56,1.37-16.09,2.63-19.6,3.8-3.51,0-7.71,2.34-12.58,7.02-4.88,4.68-9.46,10.73-13.75,18.13-1.56,5.47-4.39,11.22-8.48,17.26-4.1,6.05-6.14,10.05-6.14,11.99-2.73,1.96-5.85,5.66-9.36,11.12,0,2.34-1.86,8.1-5.56,17.26-3.71,9.17-8.29,19.3-13.75,30.42-5.47,11.12-10.92,20.77-16.38,28.96l-12.29,18.72-9.36-7.02ZM1002.86,347.24c8.19-1.55,15.11-2.82,20.77-3.8,5.65-.97,10.82-1.46,15.5-1.46,16.38-3.89,28.27-6.53,35.69-7.9,7.4-1.36,12.58-2.05,15.5-2.05s5.56.58,7.9,1.75c1.55,1.96,3.7,3.32,6.43,4.1.38-.78.97-5.27,1.75-13.46.78-8.19,1.85-18.33,3.22-30.42,1.36-12.08,2.72-24.66,4.09-37.73,1.36-13.06,2.43-25.16,3.22-36.27.78-11.12,1.36-19.6,1.75-25.45.38-7.4.97-17.16,1.75-29.25-2.34,0-7.31,4.3-14.92,12.87-7.61,8.58-16.09,19.89-25.45,33.93-9.36,14.04-18.13,29.06-26.32,45.04-3.9,7.41-7.61,14.04-11.12,19.89-3.51,5.85-6.24,8.77-8.19,8.77-.79.79-3.03,4.2-6.73,10.24-3.71,6.05-7.71,12.87-11.99,20.47-4.3,7.61-7.81,14.43-10.53,20.48-2.73,6.05-3.51,9.46-2.34,10.24Z"/>
        <path class="cls-1" d="M1394.81,489.39c-7.81,0-14.24-1.65-19.3-4.97-5.07-3.31-9.36-8.87-12.87-16.67-1.56-5.46-2.83-11.6-3.8-18.43-.98-6.82-1.46-13.25-1.46-19.31s.58-10.04,1.75-11.99c1.55-1.55,2.24-4.39,2.05-8.48-.2-4.09-.29-8.48-.29-13.16-.39-7.8-2.25-12.18-5.56-13.16-3.32-.97-8.1.29-14.33,3.8-7.02,4.3-16.19,10.05-27.5,17.26-11.32,7.22-23.11,15.12-35.39,23.69-12.29,8.58-23.89,17.55-34.81,26.91-8.58,9.36-13.75,16.48-15.5,21.35-1.75,4.88-4.2,7.31-7.31,7.31-3.13,1.56-5.76,1.66-7.9.29-2.15-1.36-5.17-3.6-9.07-6.73-2.73-3.12-5.47-6.14-8.19-9.07-2.73-2.92-4.49-5.16-5.27-6.73,0-1.95.58-6.04,1.76-12.29,1.17-6.23,2.63-12.48,4.39-18.72,1.76-6.23,3.02-10.33,3.8-12.29,1.95,0,3.6-1.95,4.97-5.85,1.36-3.89,3.6-8.19,6.73-12.87.78-4.68,2.82-11.01,6.14-19.01,3.31-7.99,6.33-15.11,9.07-21.35,5.46-9.36,9.26-17.16,11.41-23.4,2.14-6.23,3.6-14.04,4.39-23.4-.39-1.55,0-3.02,1.17-4.39,1.17-1.36,2.53-2.05,4.1-2.05,3.12-3.12,6.82-3.99,11.11-2.63,4.29,1.37,8.19,4.39,11.7,9.07,7.02,9.36,9.84,19.01,8.48,28.96-1.37,9.95-7.71,24.09-19.01,42.41-2.73,6.24-4.78,11.02-6.14,14.33-1.37,3.32-2.05,5.95-2.05,7.9,8.19-5.46,14.92-10.04,20.18-13.75,5.26-3.7,9.45-6.53,12.58-8.48,1.95-1.95,6.44-5.46,13.46-10.53,7.02-5.06,14.52-10.04,22.52-14.92,7.99-4.87,13.94-7.7,17.84-8.48,3.12-1.55,6.44-3.02,9.95-4.39,3.51-1.36,6.04-2.05,7.61-2.05,3.12,0,7.11,1.66,11.99,4.97,4.87,3.32,9.45,7.22,13.75,11.7,4.29,4.49,6.82,8.29,7.61,11.41,0,1.56.09,3.13.29,4.68.19,1.56.48,3.12.88,4.68,1.55,5.07,2.43,11.9,2.63,20.47.19,8.58-.1,16.38-.88,23.4-.79,7.02-2.15,11.12-4.09,12.29.38,1.96,1.36,2.92,2.92,2.92v2.92c-1.96,0-2.73,1.66-2.34,4.97.38,3.32,1.65,6.93,3.8,10.82,2.14,3.9,4.39,7.02,6.73,9.36,4.68,4.68,6.63,9.07,5.85,13.16-.79,4.09-4.3,6.93-10.53,8.48Z"/>
        <path class="cls-1" d="M1455.07,495.24c-1.56-3.12-3.51-5.56-5.85-7.31s-3.51-3.41-3.51-4.97-.1-3.22-.29-4.97c-.2-1.75-1.08-3.41-2.63-4.97-1.96-2.34-1.75-7.7.58-16.09,2.34-8.38,6.23-18.72,11.7-31,5.46-12.29,11.89-25.25,19.3-38.9,3.12-3.12,6.23-7.21,9.36-12.29,3.12-5.06,5.46-8.38,7.02-9.94,0-1.55.58-3.02,1.75-4.39,1.17-1.36,2.53-2.05,4.1-2.05v-3.51c0-1.95,1.85-5.27,5.56-9.95,3.7-4.68,8.28-9.84,13.75-15.5,5.46-5.65,11.12-11.12,16.96-16.38,5.85-5.26,10.72-9.07,14.62-11.41,8.19-5.46,16.67-8.78,25.45-9.95,8.77-1.17,16.28.79,22.52,5.85,1.17,1.17,3.12,3.12,5.85,5.85,2.72,2.73,5.94,5.76,9.65,9.07,3.7,3.32,7.5,6.73,11.41,10.24l21.64,19.31-10.53,29.25c-5.07,15.6-6.34,29.25-3.8,40.95,2.53,11.7,6.33,21.85,11.41,30.42,1.95,4.3,5.94,8.39,11.99,12.29,6.04,3.9,11.79,6.24,17.26,7.02,3.12.39,6.04,1.56,8.78,3.51,2.72,1.96,4.09,5.07,4.09,9.36,0,3.9-.79,7.02-2.34,9.36-1.56,2.34-4.3,3.9-8.19,4.68-12.87,1.56-24.86-1.55-35.98-9.36-11.11-7.8-21.35-20.67-30.71-38.61-1.56-2.34-3.61-6.73-6.14-13.16-2.54-6.43-4-10.62-4.39-12.58-1.56,1.96-4.49,5.56-8.78,10.82-4.3,5.26-7.6,9.07-9.95,11.41-27.7,28.08-51.58,46.9-71.66,56.45-20.09,9.56-36.76,10.05-50.02,1.46ZM1488.7,462.19c8.38-2.92,17.45-8.28,27.2-16.09,13.25-11.31,26.62-23.78,40.07-37.44,13.46-13.65,24.28-26.33,32.47-38.03l12.87-21.06c-3.9-8.97-8.1-15.11-12.58-18.43-4.49-3.31-8.29-4.97-11.41-4.97-5.07,0-12.58,4.68-22.52,14.04-9.94,9.36-20.58,21.85-31.88,37.44-11.32,15.6-22.04,32.76-32.18,51.48-3.9,7.81-8.77,18.92-14.62,33.35,0,2.73,4.19,2.63,12.58-.29Z"/>
        <path class="cls-1" d="M1017.01,729.26c-.81,1.89-3.92,3.38-9.33,4.46-5.41,1.08-14.06,2.3-25.96,3.65-3.52.27-8.72.54-15.62.81-6.9.27-14.34.54-22.31.81-7.98.27-15.21.34-21.7.2-6.49-.13-10.95-.47-13.38-1.01-2.43,2.71-3.65,5.14-3.65,7.3-1.9,3.24-4.26,8.25-7.1,15.01-2.84,6.76-5.95,14.2-9.33,22.31-3.38,8.11-6.49,16.22-9.33,24.34-2.84,8.11-5.21,15.15-7.1,21.09-1.89,5.95-2.84,10.01-2.84,12.17-2.43,6.49-3.92,12.04-4.46,16.63-.54,4.6-1.49,7.3-2.84,8.11-.27,1.08-2.03,1.35-5.27.81-3.25-.54-5.95-2.03-8.11-4.46-3.24-2.43-5.07-4.66-5.48-6.69s.34-6.02,2.23-11.96c.81-3.51,2.23-8.72,4.26-15.62,2.03-6.89,4.32-14.53,6.9-22.92,2.57-8.38,5.27-16.56,8.11-24.54,2.84-7.97,5.61-14.53,8.31-19.67,2.97-5.13,4.87-9.8,5.68-13.99.81-4.19,1.89-8.04,3.25-11.56-.27-2.97-.27-5,0-6.08.27-1.08,1.35-2.7,3.25-4.87,1.35-1.08,3.04-3.04,5.07-5.88,2.03-2.84,4.39-7.23,7.1-13.18.81-2.7,2.09-6.42,3.85-11.15,1.75-4.73,3.45-9.6,5.07-14.6,1.62-5,3.11-9.26,4.46-12.78,1.35-3.51,2.03-5.41,2.03-5.68.54-1.08,1.35-3.17,2.43-6.29,1.08-3.11,1.89-5.61,2.43-7.5,1.08-3.79,1.96-6.9,2.64-9.33.67-2.43.47-3.65-.61-3.65-2.17.54-6.49.95-12.98,1.22-3.25.54-5.62.88-7.1,1.01-1.49.14-2.78.34-3.85.61-2.71.27-5.14,0-7.3-.81-2.17-.81-3.24-2.43-3.24-4.87.54-4.32,2.09-7.91,4.66-10.75,2.57-2.84,5.88-4.39,9.94-4.66,1.89-.54,3.99-1.02,6.29-1.42,2.29-.41,5.48-1.15,9.53-2.23,5.13-1.08,9.13-1.96,11.96-2.64,2.84-.67,5.07-.74,6.69-.2,1.35-.81,2.57-1.69,3.65-2.64,1.08-.95,1.62-1.96,1.62-3.04,0-1.35.61-2.36,1.83-3.04,1.22-.67,2.64-1.08,4.26-1.22,1.62-.13,3.31.07,5.07.61,1.76.54,3.04,1.49,3.85,2.84.54.81,1.76,1.49,3.65,2.03,1.89.55,5.34.48,10.34-.2,5-.67,12.1-1.96,21.29-3.85,4.87-.54,11.01-1.08,18.46-1.62,7.43-.54,13.32-.13,17.64,1.22,4.59-.81,8.72-1.15,12.37-1.01,3.65.14,6.15-.34,7.5-1.42,5.68,1.08,9.8,1.83,12.37,2.23,2.57.41,4.67,1.29,6.29,2.64,1.08,1.08,1.22,2.57.41,4.46-1.08-.54-.95-.47.41.2,1.35.68,2.29,1.29,2.84,1.83,1.89.81,3.11,1.82,3.65,3.04.54,1.22.81,2.37.81,3.45s-.14,2.03-.41,2.84c-.27,2.43-1.62,3.85-4.06,4.26s-8.52.47-18.25.2c-11.63-1.62-23.06-2.23-34.27-1.83-11.22.41-24.27,1.69-39.14,3.85-5.41.27-10.21,1.01-14.4,2.23-4.2,1.22-6.56,1.83-7.1,1.83-1.08,0-2.98,1.82-5.68,5.47-2.71,3.65-5.27,8.99-7.71,16.02-1.08,1.89-2.98,6.22-5.68,12.98-2.71,6.76-5.62,14.06-8.72,21.9-3.11,7.85-5.82,14.74-8.11,20.69-2.3,5.95-3.72,9.2-4.26,9.73,3.78,1.08,9.94,1.62,18.46,1.62s17.98-.34,28.39-1.01c10.41-.67,19.94-1.42,28.6-2.23,4.06-.81,8.32-1.55,12.78-2.23,4.46-.67,7.36-.74,8.72-.2,1.35.81,2.57,2.37,3.65,4.67,1.08,2.3,1.83,4.66,2.23,7.1.41,2.43.2,4.46-.61,6.08Z"/>
        <path class="cls-1" d="M1062.84,857.43c-5.14,1.35-9.27.27-12.37-3.25-3.11-3.51-4.94-8.92-5.48-16.22-.54-7.3.27-15.95,2.43-25.96,1.35-3.24,2.43-6.42,3.25-9.53.81-3.11,1.22-5.61,1.22-7.5.54-2.7,1.62-6.69,3.25-11.96,1.62-5.27,3.38-10.75,5.27-16.43,1.89-5.68,3.71-10.75,5.48-15.21,1.76-4.46,2.9-7.23,3.45-8.31,1.08,0,2.03-.95,2.84-2.84.81-1.89,1.22-3.78,1.22-5.68,0-2.16.47-4.6,1.42-7.3.94-2.7,1.96-4.6,3.04-5.68,0-1.35.34-2.9,1.01-4.66.67-1.76,1.01-3.18,1.01-4.26s.34-2.16,1.01-3.24c.67-1.08,1.01-2.16,1.01-3.24,1.89-3.51,4.39-9.13,7.5-16.83,3.11-7.71,6.49-16.29,10.14-25.76,3.65-9.46,7.1-18.79,10.34-27.99,3.25-9.19,5.88-16.96,7.91-23.32,2.03-6.35,3.04-10.2,3.04-11.56,0-2.16.54-3.78,1.62-4.87,1.08-1.08,2.7-1.62,4.87-1.62.81-.81,1.83-1.35,3.04-1.62,1.22-.27,2.36-.41,3.45-.41,2.16,2.17,4.32,4.33,6.49,6.49,2.16,1.89,3.45,4.06,3.85,6.49.41,2.43.61,5.27.61,8.52,0,3.52-.41,6.63-1.22,9.33-.81,2.71-2.43,6.63-4.87,11.76-2.43,5.14-6.22,13.12-11.36,23.93-2.17,5.41-4.46,10.48-6.9,15.21-2.43,4.73-3.65,7.64-3.65,8.72s-.47,2.71-1.42,4.87c-.95,2.17-1.96,4.87-3.04,8.11-1.08,2.17-2.57,5.34-4.46,9.53-1.9,4.2-3.85,8.66-5.88,13.39-2.03,4.73-3.72,8.79-5.07,12.17-1.36,3.38-2.03,5.34-2.03,5.88,0,1.08-.07,2.17-.2,3.24-.14,1.08-.75,2.17-1.83,3.25-1.08,0-1.76,1.49-2.03,4.46,0,2.71-2.17,9.88-6.49,21.5-4.33,14.88-8.32,28.53-11.97,40.97-3.65,12.44-5.48,22.45-5.48,30.02,0,6.49-.14,10.75-.41,12.78-.27,2.03-1.49,3.59-3.65,4.66Z"/>
        <path class="cls-1" d="M1130.17,842.83c-1.08-2.16-2.43-3.85-4.06-5.07-1.62-1.22-2.43-2.37-2.43-3.45s-.07-2.23-.2-3.45c-.14-1.22-.75-2.36-1.83-3.45-1.36-1.62-1.22-5.34.41-11.15,1.62-5.81,4.32-12.98,8.11-21.5,3.78-8.52,8.25-17.5,13.39-26.97,2.16-2.16,4.32-5,6.49-8.52,2.16-3.51,3.78-5.81,4.87-6.9,0-1.08.41-2.09,1.22-3.04.81-.95,1.76-1.42,2.84-1.42v-2.43c0-1.35,1.28-3.65,3.85-6.9,2.57-3.24,5.74-6.82,9.53-10.75,3.78-3.92,7.71-7.71,11.76-11.36,4.06-3.65,7.43-6.29,10.14-7.91,5.68-3.79,11.56-6.09,17.64-6.9,6.08-.81,11.29.54,15.62,4.06.81.81,2.16,2.17,4.06,4.06,1.89,1.89,4.12,3.99,6.69,6.29,2.57,2.3,5.2,4.66,7.91,7.1l15.01,13.38-7.3,20.28c-3.52,10.82-4.4,20.28-2.64,28.39,1.76,8.11,4.39,15.15,7.91,21.09,1.35,2.98,4.12,5.82,8.31,8.52,4.19,2.71,8.18,4.33,11.97,4.87,2.16.27,4.19,1.08,6.08,2.43,1.89,1.36,2.84,3.52,2.84,6.49,0,2.71-.55,4.87-1.62,6.49-1.08,1.62-2.98,2.71-5.68,3.24-8.92,1.08-17.24-1.08-24.95-6.49-7.71-5.41-14.8-14.33-21.29-26.77-1.08-1.62-2.5-4.66-4.26-9.13-1.76-4.46-2.78-7.36-3.04-8.72-1.08,1.36-3.11,3.85-6.08,7.5-2.98,3.65-5.27,6.29-6.9,7.91-19.2,19.47-35.76,32.52-49.69,39.14-13.93,6.63-25.49,6.96-34.68,1.02ZM1153.49,819.91c5.81-2.03,12.1-5.74,18.86-11.15,9.19-7.84,18.46-16.49,27.79-25.96,9.33-9.46,16.83-18.25,22.51-26.37l8.92-14.6c-2.71-6.22-5.62-10.48-8.72-12.78-3.11-2.29-5.75-3.45-7.91-3.45-3.52,0-8.72,3.24-15.62,9.73s-14.27,15.15-22.11,25.96c-7.85,10.82-15.28,22.71-22.31,35.69-2.71,5.41-6.08,13.12-10.14,23.12,0,1.89,2.9,1.82,8.72-.2ZM1244.55,677.34c-1.89-1.89-3.31-4.73-4.26-8.52-.95-3.79-1.29-6.22-1.01-7.3.27-1.35,2.09-4.05,5.48-8.11,3.38-4.06,7.36-8.52,11.96-13.38,4.6-4.87,8.99-9.19,13.18-12.98,4.19-3.78,7.23-6.08,9.13-6.89,2.97-1.89,5.81-1.55,8.52,1.01,2.7,2.57,5.41,6.02,8.11,10.34.81,2.43-.2,5.34-3.04,8.72-2.84,3.38-6.56,6.96-11.15,10.75-4.6,3.79-9.13,7.5-13.59,11.15-4.46,3.65-7.78,6.96-9.94,9.94-2.71,4.33-4.8,6.89-6.29,7.71-1.49.81-3.85,0-7.1-2.43Z"/>
        <path class="cls-1" d="M1346.36,832.69c-1.9-1.62-4.26-6.49-7.1-14.6-2.84-8.11-5.55-17.64-8.11-28.6-2.57-10.95-4.66-21.02-6.29-30.22-1.08-5.41-2.23-10-3.45-13.79-1.22-3.78-2.23-6.9-3.04-9.33-1.36-4.87-1.76-8.92-1.22-12.17.54-3.24,2.43-5.81,5.68-7.71,1.35-.81,3.04-1.42,5.07-1.82,2.03-.41,3.58-.47,4.67-.2,3.24,1.08,6.22,6.02,8.92,14.8,2.7,8.79,5.13,20.35,7.3,34.68,1.08,8.38,2.43,15.55,4.06,21.5,1.62,5.95,2.43,9.47,2.43,10.54,1.08,2.17,2.36,4.26,3.85,6.29,1.48,2.03,3.31,1.96,5.48-.2,1.08-1.08,3.31-3.51,6.69-7.3,3.38-3.78,6.69-7.84,9.94-12.17,5.68-7.57,10.2-13.79,13.59-18.66,3.38-4.87,7.23-10,11.56-15.41,1.89-2.7,4.06-5.68,6.49-8.92,2.43-3.25,4.93-6.29,7.5-9.13,2.57-2.84,4.93-4.53,7.1-5.07,6.49-1.08,10,.27,10.55,4.06.54,3.79-1.89,9.47-7.3,17.04-2.17,3.25-3.85,6.29-5.07,9.13s-2.37,4.8-3.45,5.88c-2.17,4.33-5.54,9.8-10.14,16.43-4.6,6.63-9.06,12.71-13.39,18.25-4.33,5.54-7.3,9.13-8.92,10.75-1.08,1.08-3.45,3.11-7.1,6.08-3.65,2.98-7.1,6.76-10.34,11.36-6.49,6.22-11.63,10.01-15.41,11.36-3.79,1.36-7.3.41-10.55-2.84Z"/>
        <path class="cls-1" d="M1463.58,844.45c-2.17-2.16-3.72-4.87-4.67-8.11-.95-3.25-1.29-6.49-1.01-9.73.27-3.25.94-5.95,2.03-8.11,0-2.16.34-3.85,1.01-5.07.67-1.22.87-2.36.61-3.45-.27-1.08,0-2.97.81-5.68.81-2.7,1.62-5.27,2.43-7.71,1.89-4.32,3.92-9.53,6.08-15.62,2.16-6.08,4.19-12.1,6.08-18.05,1.89-5.95,3.51-11.09,4.87-15.41,1.35-4.32,2.16-7.03,2.43-8.11,0-3.25,2.16-5,6.49-5.27,3.25-1.08,5.68-1.15,7.3-.2,1.62.95,3.78,3.59,6.49,7.91,2.16,2.17,2.97,5.41,2.43,9.73-.54,4.33-2.3,9.73-5.27,16.22-1.08,2.17-2.37,5.27-3.85,9.33-1.49,4.06-2.5,7.71-3.04,10.95-1.08,2.17-2.37,5.21-3.85,9.12-1.49,3.92-2.78,7.64-3.85,11.15-.54,1.36-1.08,3.31-1.62,5.88-.54,2.57-1.22,5.27-2.03,8.11-.81,2.84-1.9,5.34-3.25,7.5-2.43,11.09-4.67,17.58-6.69,19.47-2.03,1.9-5.34.27-9.94-4.87ZM1502.92,679.77c-1.36-1.35-2.57-3.31-3.65-5.88-1.08-2.57-1.76-5-2.03-7.3-.27-2.29,0-3.45.81-3.45,2.16-.27,4.73-2.57,7.71-6.89,2.97-4.32,4.19-8.11,3.65-11.36,0-1.08.41-2.09,1.22-3.04.81-.94,1.75-1.55,2.84-1.82,3.25-2.16,6.42-2.5,9.53-1.01,3.11,1.49,6.01,4.4,8.72,8.72,2.43,5.14,3.11,9.4,2.03,12.78-1.08,3.38-4.06,8.05-8.92,13.99-4.06,5.41-7.78,8.38-11.15,8.92-3.38.54-6.96-.67-10.75-3.65Z"/>
        <path class="cls-1" d="M1545.91,842.83c-1.08-2.16-2.43-3.85-4.06-5.07-1.62-1.22-2.43-2.37-2.43-3.45s-.07-2.23-.2-3.45c-.14-1.22-.75-2.36-1.83-3.45-1.36-1.62-1.22-5.34.41-11.15,1.62-5.81,4.32-12.98,8.11-21.5,3.78-8.52,8.25-17.5,13.39-26.97,2.16-2.16,4.32-5,6.49-8.52,2.16-3.51,3.78-5.81,4.87-6.9,0-1.08.41-2.09,1.22-3.04.81-.95,1.76-1.42,2.84-1.42v-2.43c0-1.35,1.28-3.65,3.85-6.9,2.57-3.24,5.74-6.82,9.53-10.75,3.78-3.92,7.71-7.71,11.76-11.36,4.06-3.65,7.43-6.29,10.14-7.91,5.68-3.79,11.56-6.09,17.64-6.9,6.08-.81,11.29.54,15.62,4.06.81.81,2.16,2.17,4.06,4.06,1.89,1.89,4.12,3.99,6.69,6.29,2.57,2.3,5.2,4.66,7.91,7.1l15.01,13.38-7.3,20.28c-3.52,10.82-4.4,20.28-2.64,28.39,1.76,8.11,4.39,15.15,7.91,21.09,1.35,2.98,4.12,5.82,8.31,8.52,4.19,2.71,8.18,4.33,11.97,4.87,2.16.27,4.19,1.08,6.08,2.43,1.89,1.36,2.84,3.52,2.84,6.49,0,2.71-.55,4.87-1.62,6.49-1.08,1.62-2.98,2.71-5.68,3.24-8.92,1.08-17.24-1.08-24.95-6.49-7.71-5.41-14.8-14.33-21.29-26.77-1.08-1.62-2.5-4.66-4.26-9.13-1.76-4.46-2.78-7.36-3.04-8.72-1.08,1.36-3.11,3.85-6.08,7.5-2.98,3.65-5.27,6.29-6.9,7.91-19.2,19.47-35.76,32.52-49.69,39.14-13.93,6.63-25.49,6.96-34.68,1.02ZM1569.24,819.91c5.81-2.03,12.1-5.74,18.86-11.15,9.19-7.84,18.46-16.49,27.79-25.96,9.33-9.46,16.83-18.25,22.51-26.37l8.92-14.6c-2.71-6.22-5.62-10.48-8.72-12.78-3.11-2.29-5.75-3.45-7.91-3.45-3.52,0-8.72,3.24-15.62,9.73s-14.27,15.15-22.11,25.96c-7.85,10.82-15.28,22.71-22.31,35.69-2.71,5.41-6.08,13.12-10.14,23.12,0,1.89,2.9,1.82,8.72-.2Z"/>
      </g>
      <g>
        <path class="cls-1" d="M480.04,110.38L382.2,12.55c-.98-.98-1.03-2.56-.1-3.59l7.22-8.09c.84-.94,2.21-1.13,3.28-.48,12.99,7.88,28.5,13.67,37.63,24.73,49.73,60.25,114.47,100.18,178.22,143.38,123.74,83.85,177.4,263.68,130.46,412.67-47.33,150.24-191.18,260.99-343.39,264.12-6.74.14-13.51-1.53-25.47-3.36-1.95-.3-2.87-2.56-1.72-4.16,7.81-10.82,12.55-19.22,19.38-25.25,57.14-50.46,78.81-114.56,65.65-187.77-9.2-51.18-24.08-101.85-41.63-150.89-36.2-101.15-46.19-199.85,15.79-294.8,13.82-21.17,31.73-39.66,52.67-65.13.86-1.04.81-2.6-.15-3.56ZM663.06,491.13c-7.74,1.13-7.51,1.1-15.25,2.23-10.54-21.3-20.79-42.03-28.11-56.82-1.18-2.38-4.75-1.73-4.95.92-3.2,42.27-6.39,90.89-11.4,139.33-1.1,10.59-6.9,20.69-11.72,30.89-1.01,2.14-4.1,1.95-4.83-.3-3.38-10.4-7.51-20.76-7.96-31.29-2.19-51.24-2.99-102.53-4.18-153.81-9.54-2.22-8.37-1.95-17.92-4.16-12.87,24.59-25.75,49.17-38.62,73.76-8.51-2.26-7.13-1.89-15.65-4.15,1.8-37.41,19.27-68.43,45.7-96.24,7.32-7.7,18.36-18.81,17.08-26.6-6.74-40.9-16.62-81.27-26.31-125.32-.4-1.83-2.62-2.72-4.13-1.61-49.15,35.72-44.69,93.7-70.36,137.61-1.02,1.75-3.7,1.72-4.59-.1-19.09-39.13,10.75-113.86,64.68-166.9.8-.78,1.01-1.98.51-2.98l-29.91-60.85c-.77-1.56-2.85-1.96-4.15-.8-58.79,52.45-88.09,114.51-81.59,185.82,5.27,57.9,15.11,118.48,40.78,171.33,119.09,245.17-22.43,312.16-20.12,312,140.16-9.86,269.96-137.02,295.37-288.11,25.52-151.78-57.64-314.95-194.96-373.46-2.32-.99-4.52,1.61-3.27,3.79,15.41,26.87,24.82,53.94,43.86,67.43,43.8,31.03,66.98,73.09,84.7,120.43,2.1,5.61-.27,12.89-1.02,19.56-.11.94-.68,1.74-1.54,2.11l-7.01,3.04-59.8-100.37c-1.34-2.25-4.77-1.34-4.86,1.28-2.18,63.68,12.86,97.82,52.41,142.79,20.41,23.2,34,49.3,29.12,79.56Z"/>
        <path class="cls-1" d="M381.91,191.2c1.99.13,3.14,2.35,2.07,4.03-6.67,10.47-8.72,15.24-12.28,18.2-80.22,66.72-82.05,151.78-57.31,243.03,18.38,67.8,43.67,134.53,53.96,203.52,12.89,86.39-8.64,167.88-72.55,232.7-14.96,15.17-13.92,27.12-.55,40.42,23.38,23.26,47.64,45.67,70.5,69.42,4.21,4.38,5.44,11.63,7.32,18.26.51,1.81-.99,3.53-2.86,3.29-6.55-.87-13.11-1.72-19.64-2.72-.97-.15-1.89-1.27-2.62-2.12-81.15-93.53-202.48-141.49-277.74-240.51C-1.07,684.93-14.91,576.76,14.45,463.93,54.24,311,187.66,200.76,343.62,189.33c10.63-.78,21.42.79,38.28,1.87ZM169.89,759.42c8.53-3.51,6-2.47,14.52-5.97-4.09-15.54-8.39-31.06-9.95-46.85-3.05-30.9-14.76-53.92-38.16-75.92-18.73-17.61-29.09-45-40.01-69.46-2.64-5.91-7.56-32.78,10.64-24.63,4.7,6.07,9.7,11.97,13.26,18.65,8.73,16.36,16.83,33.07,23.62,46.92,1.19,2.43,4.81,1.64,4.94-1.06,2.59-54.1,4.92-108.75,8.52-163.31.37-5.67,6.54-10.96,11.29-16.34,1.17-1.32,3.26-1.14,4.17.37,3.61,5.99,8.28,11.96,8.45,18.05.75,27.31-1.71,54.72-.73,82.01,1.04,29.24,3.9,58.42,6.25,87.61,9.72,1.55,8.33,1.33,18.05,2.88,8.92-21.22,17.55-42.58,27.7-63.2,2.67-5.42,9.99-8.56,16.11-12.28,1.43-.87,3.27-.18,3.8,1.41,2.09,6.29,5.53,13.29,3.39,17.36-15.57,29.58-32.78,58.31-49.68,87.18-3.84,6.55-13.18,13.42-12.2,18.7,7.82,42.19,17.37,84.05,27.91,132.68.43,1.99,2.9,2.79,4.37,1.37,10.64-10.23,16.39-13.88,18.49-19.03,13.62-33.43,25.6-67.54,39.63-100.79,2.68-6.36,9.63-10.92,15.55-15.92,1.42-1.2,3.59-.57,4.15,1.21,2.15,6.8,5.28,13.8,4.04,19.92-9.73,48.26-22.13,95.32-59.71,131.57-5.88,5.68-7.5,20.35-5,29.12,3.97,13.92,12.25,26.62,20.47,42.5.79,1.53,2.85,1.93,4.13.78,38.88-34.92,59.68-75.88,70.23-122.16,17.56-77.07,5.22-151.66-22.44-224.37-25.25-66.36-99.44-213.05-.03-313.92.65-1.8-.82-3.72-2.73-3.56C177.56,232.55,31.46,371.99,25.99,554.35c-4.38,146.07,95.07,287.86,203.52,322.05,2.32.73,4.24-1.91,2.94-3.97-15.65-24.96-25.86-49.73-44.27-63.66-40.12-30.37-65.92-68.56-82.38-114.34-2.87-7.99.55-18.25,1.06-27.46l6.96-.89c1.04-.13,2.06.37,2.59,1.28,17.82,30.69,35.64,61.37,53.46,92.06Z"/>
      </g>
    </g>
  </g>
</svg>