<?xml version="1.0" encoding="UTF-8"?>
<svg id="Layer_2" data-name="Layer 2" xmlns="http://www.w3.org/2000/svg" viewBox="0 0 773.74 1677.64">
  <defs>
    <style>
      .cls-1 {
        letter-spacing: 0em;
      }

      .cls-2 {
        letter-spacing: .03em;
      }

      .cls-3 {
        letter-spacing: .02em;
      }

      .cls-4 {
        letter-spacing: .04em;
      }

      .cls-5 {
        font-size: 506.11px;
      }

      .cls-6 {
        stroke-width: 0px;
      }

      .cls-6, .cls-7 {
        fill: #414042;
      }

      .cls-7 {
        font-family: Caveat-Regular, Caveat;
        font-variation-settings: 'wght' 400;
      }

      .cls-8 {
        font-size: 350.91px;
      }
    </style>
  </defs>
  <g id="Layer_1-2" data-name="Layer 1">
    <g>
      <text class="cls-7" transform="translate(27.38 1277.59)"><tspan class="cls-5"><tspan class="cls-1" x="0" y="0">A</tspan><tspan x="249.01" y="0">na</tspan></tspan><tspan class="cls-8"><tspan class="cls-4" x="-27.38" y="295.12">F</tspan><tspan class="cls-3" x="145.96" y="295.12">lรก</tspan><tspan class="cls-2" x="372.65" y="295.12">v</tspan><tspan class="cls-3" x="499.32" y="295.12">ia</tspan></tspan></text>
      <g>
        <path class="cls-6" d="M535.22,95.5L450.58,10.85c-.85-.85-.89-2.21-.09-3.11l6.25-7c.73-.81,1.91-.98,2.84-.42,11.24,6.81,24.65,11.83,32.55,21.4,43.03,52.12,99.03,86.67,154.18,124.04,107.05,72.54,153.47,228.12,112.87,357.02-40.95,129.97-165.39,225.79-297.08,228.5-5.83.12-11.69-1.33-22.04-2.91-1.69-.26-2.48-2.21-1.48-3.6,6.76-9.36,10.86-16.63,16.77-21.85,49.43-43.65,68.18-99.11,56.8-162.45-7.96-44.27-20.84-88.12-36.02-130.54-31.32-87.51-39.96-172.89,13.66-255.04,11.95-18.31,27.45-34.31,45.57-56.35.74-.9.7-2.25-.13-3.08ZM693.56,424.89c-6.7.98-6.5.95-13.19,1.93-9.12-18.43-17.99-36.36-24.32-49.16-1.02-2.06-4.11-1.5-4.28.8-2.77,36.57-5.53,78.63-9.87,120.54-.95,9.16-5.97,17.9-10.14,26.73-.88,1.85-3.54,1.69-4.18-.26-2.92-9-6.5-17.96-6.89-27.07-1.9-44.33-2.59-88.7-3.61-133.07-8.26-1.92-7.24-1.68-15.5-3.6-11.14,21.27-22.27,42.54-33.41,63.81-7.37-1.96-6.17-1.64-13.54-3.59,1.56-32.36,16.67-59.2,39.54-83.26,6.33-6.66,15.88-16.27,14.77-23.01-5.83-35.38-14.38-70.31-22.76-108.41-.35-1.59-2.26-2.35-3.58-1.4-42.52,30.9-38.67,81.06-60.87,119.05-.88,1.51-3.2,1.49-3.97-.09-16.52-33.85,9.3-98.51,55.95-144.39.69-.68.87-1.71.44-2.58l-25.88-52.64c-.66-1.35-2.47-1.69-3.59-.69-50.86,45.38-76.21,99.06-70.59,160.76,4.56,50.09,13.07,102.5,35.28,148.22,103.03,212.11-19.41,270.07-17.4,269.92,121.25-8.53,233.55-118.54,255.53-249.26,22.08-131.31-49.87-272.48-168.66-323.09-2-.85-3.91,1.39-2.83,3.28,13.34,23.24,21.47,46.67,37.94,58.33,37.9,26.85,57.95,63.24,73.28,104.19,1.82,4.85-.23,11.15-.89,16.93-.09.81-.58,1.5-1.33,1.83l-6.07,2.63-51.73-86.83c-1.16-1.95-4.13-1.16-4.21,1.11-1.89,55.09,11.13,84.63,45.34,123.53,17.65,20.07,29.42,42.65,25.19,68.83Z"/>
        <path class="cls-6" d="M450.32,165.41c1.72.11,2.71,2.03,1.79,3.49-5.77,9.05-7.54,13.18-10.62,15.74-69.4,57.72-70.98,131.31-49.58,210.26,15.9,58.66,37.78,116.39,46.69,176.08,11.15,74.74-7.47,145.24-62.77,201.32-12.94,13.13-12.04,23.47-.48,34.97,20.23,20.13,41.22,39.51,60.99,60.06,3.65,3.79,4.71,10.06,6.33,15.79.44,1.56-.86,3.06-2.47,2.84-5.67-.75-11.34-1.49-16.99-2.35-.84-.13-1.63-1.1-2.27-1.83-70.21-80.92-175.17-122.41-240.28-208.07-61.67-81.14-73.64-174.73-48.24-272.34,34.43-132.31,149.85-227.68,284.78-237.57,9.19-.67,18.53.68,33.12,1.62ZM266.89,657.01c7.38-3.03,5.19-2.13,12.57-5.17-3.54-13.44-7.26-26.87-8.61-40.53-2.64-26.73-12.77-46.65-33.01-65.68-16.2-15.23-25.17-38.93-34.61-60.09-2.28-5.11-6.54-28.36,9.2-21.3,4.07,5.25,8.4,10.36,11.48,16.14,7.55,14.16,14.56,28.61,20.43,40.6,1.03,2.1,4.17,1.42,4.28-.92,2.24-46.8,4.25-94.08,7.37-141.29.32-4.9,5.66-9.48,9.77-14.13,1.01-1.14,2.82-.98,3.61.32,3.12,5.19,7.16,10.35,7.31,15.62.65,23.63-1.48,47.34-.63,70.95.9,25.3,3.37,50.54,5.41,75.79,8.41,1.34,7.21,1.15,15.62,2.49,7.72-18.36,15.18-36.84,23.97-54.68,2.31-4.69,8.64-7.41,13.94-10.63,1.24-.75,2.83-.15,3.29,1.22,1.81,5.44,4.78,11.5,2.93,15.02-13.47,25.59-28.36,50.45-42.98,75.42-3.32,5.67-11.4,11.61-10.56,16.18,6.77,36.5,15.03,72.72,24.15,114.78.37,1.72,2.51,2.41,3.78,1.19,9.2-8.85,14.18-12.01,15.99-16.46,11.79-28.92,22.15-58.43,34.28-87.2,2.32-5.5,8.33-9.45,13.46-13.77,1.23-1.04,3.1-.49,3.59,1.05,1.86,5.88,4.57,11.94,3.5,17.24-8.42,41.76-19.15,82.47-51.66,113.82-5.09,4.91-6.49,17.61-4.33,25.2,3.43,12.05,10.6,23.03,17.71,36.77.68,1.32,2.47,1.67,3.58.68,33.63-30.21,51.63-65.65,60.76-105.69,15.19-66.68,4.52-131.21-19.41-194.11-21.84-57.41-86.03-184.32-.03-271.58.56-1.56-.71-3.22-2.36-3.08-117.13,10.02-243.53,130.65-248.26,288.42-3.79,126.37,82.25,249.04,176.07,278.62,2.01.63,3.66-1.65,2.55-3.43-13.54-21.59-22.37-43.02-38.3-55.07-34.71-26.27-57.03-59.31-71.27-98.92-2.49-6.91.47-15.79.92-23.76l6.02-.77c.9-.12,1.79.32,2.24,1.11,15.42,26.55,30.83,53.09,46.25,79.64Z"/>
      </g>
    </g>
  </g>
</svg>